<mxfile host="app.diagrams.net" modified="2024-01-24T05:49:47.817Z" agent="Mozilla/5.0 (X11; Linux x86_64) AppleWebKit/537.36 (KHTML, like Gecko) Chrome/113.0.0.0 Safari/537.36 OPR/99.0.0.0" version="23.0.0" etag="9ieLQ57Sk82ndSvxlTE9" type="github">
  <diagram name="Page-1" id="P8QFwRctND-GQyhHGimc">
    <mxGraphModel>
      <root>
        <mxCell id="0" />
        <mxCell id="1" parent="0" />
      </root>
    </mxGraphModel>
  </diagram>
</mxfile>
